<svg xmlns="http://www.w3.org/2000/svg" width="26.228" height="26.228" viewBox="0 0 26.228 26.228">
  <path id="ic_person_outline_24px" d="M17.114,7.115a3.442,3.442,0,1,1-3.442,3.442,3.442,3.442,0,0,1,3.442-3.442m0,14.753c4.868,0,10,2.393,10,3.442v1.8h-20v-1.8c0-1.049,5.131-3.442,10-3.442M17.114,4a6.557,6.557,0,1,0,6.557,6.557A6.555,6.555,0,0,0,17.114,4Zm0,14.753C12.737,18.753,4,20.949,4,25.31v4.918H30.227V25.31C30.227,20.949,21.49,18.753,17.114,18.753Z" transform="translate(-4 -4)" fill="#707070"/>
</svg>
